<?xml version="1.0" encoding="UTF-8" standalone="no"?>
<!-- Created with Inkscape (http://www.inkscape.org/) -->

<svg
   width="193.11183mm"
   height="172.83904mm"
   viewBox="0 0 193.11183 172.83904"
   version="1.1"
   id="svg5"
   inkscape:version="1.1.2 (b8e25be833, 2022-02-05)"
   sodipodi:docname="flow.svg"
   xmlns:inkscape="http://www.inkscape.org/namespaces/inkscape"
   xmlns:sodipodi="http://sodipodi.sourceforge.net/DTD/sodipodi-0.dtd"
   xmlns="http://www.w3.org/2000/svg"
   xmlns:svg="http://www.w3.org/2000/svg">
  <sodipodi:namedview
     id="namedview7"
     pagecolor="#ffffff"
     bordercolor="#666666"
     borderopacity="1.0"
     inkscape:pageshadow="2"
     inkscape:pageopacity="0.0"
     inkscape:pagecheckerboard="0"
     inkscape:document-units="mm"
     showgrid="false"
     showguides="true"
     inkscape:guide-bbox="true"
     inkscape:zoom="0.74029882"
     inkscape:cx="295.15108"
     inkscape:cy="217.47975"
     inkscape:window-width="1920"
     inkscape:window-height="1137"
     inkscape:window-x="1912"
     inkscape:window-y="-134"
     inkscape:window-maximized="1"
     inkscape:current-layer="layer1"
     fit-margin-top="0"
     fit-margin-left="0"
     fit-margin-right="0"
     fit-margin-bottom="0">
    <sodipodi:guide
       position="96.216633,-41.288802"
       orientation="1,0"
       id="guide15050" />
    <sodipodi:guide
       position="-64.971096,87.018067"
       orientation="0,-1"
       id="guide15052" />
  </sodipodi:namedview>
  <defs
     id="defs2">
    <marker
       style="overflow:visible"
       id="Arrow1Mstart"
       refX="0"
       refY="0"
       orient="auto"
       inkscape:stockid="Arrow1Mstart"
       inkscape:isstock="true">
      <path
         transform="matrix(0.4,0,0,0.4,4,0)"
         style="fill:context-stroke;fill-rule:evenodd;stroke:context-stroke;stroke-width:1pt"
         d="M 0,0 5,-5 -12.5,0 5,5 Z"
         id="path13627" />
    </marker>
    <marker
       style="overflow:visible"
       id="marker13891"
       refX="0"
       refY="0"
       orient="auto"
       inkscape:stockid="Arrow1Mend"
       inkscape:isstock="true">
      <path
         transform="matrix(-0.4,0,0,-0.4,-4,0)"
         style="fill:context-stroke;fill-rule:evenodd;stroke:context-stroke;stroke-width:1pt"
         d="M 0,0 5,-5 -12.5,0 5,5 Z"
         id="path13889" />
    </marker>
    <marker
       style="overflow:visible"
       id="Arrow1Mend"
       refX="0"
       refY="0"
       orient="auto"
       inkscape:stockid="Arrow1Mend"
       inkscape:isstock="true">
      <path
         transform="matrix(-0.4,0,0,-0.4,-4,0)"
         style="fill:context-stroke;fill-rule:evenodd;stroke:context-stroke;stroke-width:1pt"
         d="M 0,0 5,-5 -12.5,0 5,5 Z"
         id="path13630" />
    </marker>
    <linearGradient
       id="a"
       x1="9"
       y1="16.969999"
       x2="9"
       y2="1.03"
       gradientUnits="userSpaceOnUse"
       gradientTransform="matrix(1.303279,0,0,1.303279,21.200137,55.43066)">
      <stop
         offset="0"
         stop-color="#0078d4"
         id="stop868" />
      <stop
         offset=".16"
         stop-color="#1380da"
         id="stop870" />
      <stop
         offset=".53"
         stop-color="#3c91e5"
         id="stop872" />
      <stop
         offset=".82"
         stop-color="#559cec"
         id="stop874" />
      <stop
         offset="1"
         stop-color="#5ea0ef"
         id="stop876" />
    </linearGradient>
    <style
       id="style894">.cls-1{fill:#65c179;}.cls-2{fill:#f5f1e3;}</style>
    <linearGradient
       id="a-3"
       gradientUnits="userSpaceOnUse"
       x1="198.099"
       y1="1683.0726"
       x2="942.23438"
       y2="394.26071"
       gradientTransform="matrix(0.00996278,0,0,-0.00996278,83.908322,204.05067)">
      <stop
         offset="0"
         stop-color="#5a62c3"
         id="stop26" />
      <stop
         offset=".5"
         stop-color="#4d55bd"
         id="stop28" />
      <stop
         offset="1"
         stop-color="#3940ab"
         id="stop30" />
    </linearGradient>
    <style
       id="style7187">.cls-1{fill:#65c179;}.cls-2{fill:#f5f1e3;}</style>
  </defs>
  <g
     inkscape:label="Ebene 1"
     inkscape:groupmode="layer"
     id="layer1"
     transform="translate(1.5054398,-40.698879)">
    <rect
       style="fill:#131323;fill-opacity:1;stroke:#ecf2e6;stroke-width:1.90545;stroke-linejoin:round;stroke-miterlimit:4;stroke-dasharray:none;stroke-opacity:1"
       id="rect3573"
       width="191.20638"
       height="170.93358"
       x="-0.55271477"
       y="41.651604" />
    <text
       xml:space="preserve"
       style="font-style:normal;font-weight:normal;font-size:10.5833px;line-height:1.25;font-family:sans-serif;letter-spacing:-0.423333px;fill:#ffffff;fill-opacity:1;stroke:none;stroke-width:0.264583"
       x="80.889366"
       y="91.947746"
       id="text1687"><tspan
         sodipodi:role="line"
         id="tspan1685"
         x="80.889366"
         y="91.947746"
         style="font-style:normal;font-variant:normal;font-weight:normal;font-stretch:normal;font-family:Arial;-inkscape-font-specification:Arial;fill:#ffffff;fill-opacity:1;stroke-width:0.264583">XRAY</tspan></text>
    <path
       style="fill:#2bb34b;fill-opacity:1;stroke:none;stroke-width:0.264583px;stroke-linecap:butt;stroke-linejoin:miter;stroke-opacity:1"
       d="m 87.686688,71.044488 -0.04585,-8.527798 9.949097,-8.894584 -4.99747,9.123826 z"
       id="path7154"
       sodipodi:nodetypes="ccccc" />
    <path
       style="fill:#2bb34b;fill-opacity:0.8;stroke:none;stroke-width:0.264583px;stroke-linecap:butt;stroke-linejoin:miter;stroke-opacity:1"
       d="m 94.151305,69.485643 -6.464617,1.558845 4.905777,-8.298556 5.08917,0.04585 3.255235,4.951624 z"
       id="path15429"
       sodipodi:nodetypes="cccccc" />
    <path
       style="fill:#2cb34c;fill-opacity:0.501961;stroke:none;stroke-width:0.264583px;stroke-linecap:butt;stroke-linejoin:miter;stroke-opacity:1"
       d="m 90.896075,81.864704 3.25523,-12.379061 6.785565,-1.742238 z"
       id="path18204"
       sodipodi:nodetypes="cccc" />
    <g
       id="g12498"
       transform="matrix(0.64635462,0,0,0.64635462,28.3569,51.902087)">
      <path
         style="fill:#ecf2e6;fill-opacity:1;stroke:none;stroke-width:0.0797945px;stroke-linecap:butt;stroke-linejoin:miter;stroke-opacity:1"
         d="m 98.948268,117.20916 0.896254,2.36285 2.851718,0.89625 2.7974,-1.14068 0.0272,-3.04183 -2.28138,-2.25422 -3.503535,0.89626 z"
         id="path864" />
      <path
         id="path13795"
         style="fill:#627d77;fill-opacity:1;stroke:none;stroke-width:0.0797945px;stroke-linecap:butt;stroke-linejoin:miter;stroke-opacity:1"
         d="m 95.645509,108.40281 -0.03834,18.93562 4.536131,0.76163 7.93052,3.63922 4.56262,6.40959 3.4427,7.39533 1.80519,5.91493 7.57129,-0.0566 -2.71582,-4.18251 -3.04186,-7.7675 0.16287,-6.19233 -1.30352,-9.45129 -4.39992,-7.0615 -4.72564,-4.454 -7.65887,-3.53075 z m 6.680921,4.13841 c 2.57307,0 4.66642,2.09335 4.66642,4.66642 0,2.57308 -2.09335,4.66642 -4.66642,4.66642 -2.573076,0 -4.666421,-2.09335 -4.666421,-4.66642 0,-2.57307 2.093345,-4.66642 4.666421,-4.66642 z"
         sodipodi:nodetypes="ccccccccccccccccsssss" />
      <path
         style="fill:#d0e18e;fill-opacity:1;stroke:none;stroke-width:0.0797945px;stroke-linecap:butt;stroke-linejoin:miter;stroke-opacity:1"
         d="m 95.607114,127.33836 0.72977,7.91224 4.340206,7.10565 6.18384,5.56929 11.02335,3.53362 -1.80522,-5.91497 -4.64747,-10.60086 -5.49248,-4.68589 -8.10428,-2.84226 z"
         id="path4466" />
      <path
         style="fill:#8c1039;fill-opacity:1;stroke:none;stroke-width:0.0797945px;stroke-linecap:butt;stroke-linejoin:miter;stroke-opacity:1"
         d="m 76.402658,122.26839 1.613174,-7.06724 5.492474,-5.64611 9.52541,-1.68999 2.611808,0.53772 -0.460909,9.25655 -6.644741,0.19204 -7.989054,2.07408 z"
         id="path3120" />
      <path
         d="m 102.32642,112.54125 c -2.573078,0 -4.666392,2.09332 -4.666392,4.66639 0,2.57308 2.093314,4.66639 4.666392,4.66639 2.57307,0 4.66639,-2.09331 4.66639,-4.66639 0,-2.57307 -2.09332,-4.66639 -4.66639,-4.66639 z m 0,7.09091 c -1.33676,0 -2.424516,-1.08761 -2.424516,-2.42452 0,-1.3369 1.087606,-2.42451 2.424516,-2.42451 1.3369,0 2.42451,1.08761 2.42451,2.42451 0,1.33691 -1.08761,2.42452 -2.42451,2.42452 z"
         id="path2"
         style="fill:#1f1f39;fill-opacity:1;stroke-width:0.149458" />
      <path
         d="m 101.65864,116.3073 c -0.39099,0.28936 -0.5524,0.81963 -0.38725,1.27757 0.15917,0.4418 0.58588,0.74296 1.05563,0.74296 0.52041,0 0.97611,-0.36991 1.09224,-0.87448 0.22807,-0.99121 -0.94592,-1.74911 -1.76062,-1.14605 z"
         id="path6"
         style="fill:#1f1f39;fill-opacity:1;stroke-width:0.149458" />
      <path
         style="fill:#580a24;fill-opacity:1;stroke:none;stroke-width:0.0797945px;stroke-linecap:butt;stroke-linejoin:miter;stroke-opacity:1"
         d="m 77.492498,122.7768 6.952756,-4.29116 10.739361,-0.82632 -0.03863,5.49771 z"
         id="path8422" />
      <path
         id="path14169"
         style="fill:#ecf2e6;fill-opacity:1;stroke:none;stroke-width:0.0797945px;stroke-linecap:butt;stroke-linejoin:miter;stroke-opacity:1"
         d="m 110.04889,98.14766 -3.61039,0.729684 -1.49802,2.880706 2.70008,1.1377 -5.35029,-1.21453 -1.65152,6.79843 9.75581,4.4554 4.53224,-6.14543 -5.24883,-3.03546 2.09928,0.8846 1.11385,-1.65169 -0.49934,-3.187881 z" />
      <path
         d="m 126.83894,150.44928 -0.54882,-0.52983 v 0 c -3.50704,-3.38509 -5.51845,-8.12202 -5.51845,-12.99616 v -4.88938 c 0,-7.68126 -3.44247,-14.57264 -8.86467,-19.21556 l 3.91117,-5.53848 c 0.33658,-0.47647 0.25139,-1.1317 -0.19624,-1.50609 -0.70335,-0.58872 -1.43599,-1.13424 -2.1936,-1.63672 l 0.2768,-0.66793 c 1.04023,-2.51269 -0.15708,-5.403668 -2.66933,-6.444496 -2.51314,-1.04023 -5.40396,0.157828 -6.44434,2.670821 l -0.31611,0.763135 c -0.49934,-0.0904 -1.00182,-0.16889 -1.50848,-0.22867 l -0.71366,-0.0842 c -0.59216,-0.0698 -1.13484,0.33584 -1.23602,0.92336 l -1.037844,6.03826 c -1.39878,-0.24062 -2.835823,-0.36766 -4.302308,-0.36766 h -4.189916 c -8.971088,0 -16.269588,7.2985 -16.269588,16.26959 0,0.61905 0.501731,1.12093 1.120937,1.12093 h 18.217778 v 2.95211 c 0,9.61824 5.396643,17.99897 13.320481,22.27557 v 6.94354 h -4.35642 c -0.91707,0 -1.73625,0.54746 -2.08718,1.39459 -0.35093,0.84713 -0.15873,1.81353 0.48977,2.46203 0.21836,0.21836 0.50353,0.32732 0.78884,0.32732 0.28652,0 0.57333,-0.10986 0.79273,-0.32926 0.43777,-0.43777 0.43388,-1.14934 -0.004,-1.5871 -4.5e-4,-0.008 0.006,-0.023 0.0196,-0.0256 h 5.47735 c 0.75746,0 1.46978,0.29503 2.00544,0.83069 l 0.18607,0.18608 c 0.21896,0.2188 0.50592,0.32836 0.79273,0.32836 0.28681,0 0.57377,-0.10941 0.79273,-0.32836 0.43776,-0.43777 0.43776,-1.14754 0,-1.58516 l -0.18623,-0.18622 c -0.68915,-0.68901 -1.54151,-1.15412 -2.46965,-1.36232 v -5.99791 c 2.99739,1.25411 6.28503,1.94819 9.73198,1.94819 h 6.40968 c 0.45704,0 0.8682,-0.27739 1.03933,-0.70111 0.17113,-0.42371 0.068,-0.909 -0.2608,-1.22645 z m -20.17599,-49.89593 c 0.56749,-1.371135 2.14488,-2.024567 3.51526,-1.457223 1.37039,0.567792 2.02352,2.144873 1.45603,3.515263 l -0.15111,0.36438 c -1.58396,-0.85102 -3.25625,-1.52478 -4.99146,-2.00872 z m -3.81657,1.94594 c 3.84183,0.51309 7.45663,2.00828 10.53144,4.35044 l -0.66973,0.94831 c -1.38682,-0.97895 -2.87109,-1.81502 -4.42949,-2.48699 -1.8074,-0.77897 -3.69686,-1.33257 -5.6304,-1.65809 z m -0.57795,3.36282 c 1.75912,0.29548 3.47819,0.799 5.12268,1.50773 1.41567,0.61039 2.76409,1.36979 4.02387,2.25922 l -1.27488,1.8053 c -2.43781,-1.74029 -5.19652,-3.05791 -8.16805,-3.8481 z m -10.981008,3.11934 h 3.068977 v 7.1205 c -8.372507,0.22389 -14.084806,2.91324 -16.909569,4.6347 1.089551,-6.65762 6.879567,-11.7552 13.840592,-11.7552 z m -11.303387,12.90693 c 0.496052,-0.25931 1.048451,-0.52819 1.657792,-0.79646 2.689502,-1.18401 7.021256,-2.5816 12.714572,-2.7469 v 3.54336 z m 16.650111,6.4708 c 3.259836,0.20655 6.381424,1.2828 9.089314,3.14849 3.02713,2.08569 5.31892,5.00372 6.62818,8.43887 l 3.78279,9.92045 C 105.49718,148.23206 97.234519,139.29923 96.634146,128.35918 Z m 23.016584,21.77564 c -0.34315,0 -0.68436,-0.009 -1.02393,-0.0239 L 114.44659,139.148 c -1.47171,-3.86141 -4.04822,-7.14172 -7.45109,-9.48627 -3.09379,-2.13173 -6.66779,-3.34608 -10.397224,-3.54964 l 1.49e-4,-17.10371 c 12.192965,0.58617 21.931375,10.68986 21.931375,23.02555 v 4.88923 c 0,4.83737 1.76226,9.55428 4.88803,13.21153 h -3.7671 z"
         id="path4"
         style="fill:#000000;fill-opacity:1;stroke:#ecf2e6;stroke-width:0.549;stroke-miterlimit:4;stroke-dasharray:none;stroke-opacity:1" />
    </g>
    <path
       d="m 43.355872,60.64376 v 12.69393 l -5.213117,4.27478 -8.080324,-2.94541 v 2.91931 l -4.574512,-5.98202 13.332546,1.04259 V 61.21722 Z m -4.444177,0.63862 -7.480824,-4.54846 v 2.98453 l -6.86828,2.02006 -2.059182,2.64569 v 6.00807 l 2.945414,1.30331 v -7.70239 z"
       fill="url(#a)"
       id="path881"
       style="fill:url(#a);stroke-width:1.30328" />
    <g
       id="g910"
       transform="matrix(0.21987973,0,0,0.21987973,122.38754,59.457213)">
      <rect
         class="cls-1"
         x="211.10432"
         y="47.573029"
         width="11.85403"
         height="11.85403"
         rx="0.90357"
         ry="0.90357"
         transform="rotate(-135,217.03135,53.500047)"
         id="rect898" />
      <rect
         class="cls-1"
         x="222.58504"
         y="36.092339"
         width="11.85403"
         height="11.85403"
         rx="0.90357"
         ry="0.90357"
         transform="rotate(-135,228.51204,42.019354)"
         id="rect900" />
      <rect
         class="cls-1"
         x="234.06572"
         y="24.611641"
         width="11.85403"
         height="11.85403"
         rx="0.90357"
         ry="0.90357"
         transform="rotate(-135,239.99273,30.538658)"
         id="rect902" />
      <rect
         class="cls-1"
         x="211.3196"
         y="24.82691"
         width="11.85403"
         height="11.85403"
         rx="0.90357"
         ry="0.90357"
         transform="rotate(-135,217.24661,30.753923)"
         id="rect904" />
      <rect
         class="cls-1"
         x="222.80029"
         y="13.34621"
         width="11.85403"
         height="11.85403"
         rx="0.90357"
         ry="0.90357"
         transform="rotate(-135,228.7273,19.27323)"
         id="rect906" />
      <rect
         class="cls-1"
         x="211.53487"
         y="2.08078"
         width="11.85403"
         height="11.85403"
         rx="0.90357"
         ry="0.90357"
         transform="rotate(-135,217.46187,8.0077973)"
         id="rect908" />
    </g>
    <g
       id="g932"
       transform="matrix(0.21987973,0,0,0.21987973,122.38754,59.457213)"
       style="fill:#f5f1e3;fill-opacity:1">
      <g
         id="g928"
         style="fill:#f5f1e3;fill-opacity:1">
        <path
           class="cls-2"
           d="M 22.47607,14.94557 V 52.88551 H 14.4624 V 14.94557 H 0 V 7.93385 h 36.93799 v 7.01172 H 22.47608 Z"
           id="path912"
           style="fill:#f5f1e3;fill-opacity:1" />
        <path
           class="cls-2"
           d="m 26.85352,36.48268 c 0,-9.6416 6.51074,-17.0918 15.65137,-17.0918 9.5166,0 14.5874,7.19971 14.5874,16.21533 v 2.50391 H 34.05323 c 0.56348,5.63477 3.94385,9.07812 8.76465,9.07812 3.69385,0 6.63672,-1.87793 7.63818,-5.25879 l 6.44873,2.44141 c -2.31689,5.75977 -7.51318,9.20312 -14.08691,9.20312 -9.39062,0 -15.96436,-6.94922 -15.96436,-17.09131 z m 7.5752,-4.00684 H 49.5171 c -0.0625,-3.63135 -2.31641,-6.76172 -7.07471,-6.76172 -3.88184,0 -6.88672,2.31641 -8.01367,6.76172 z"
           id="path914"
           style="fill:#f5f1e3;fill-opacity:1" />
        <path
           class="cls-2"
           d="m 63.01514,42.11696 c 1.94092,3.19336 5.69727,5.32178 9.5166,5.32178 3.19287,0 6.13525,-1.12695 6.13525,-4.06934 0,-2.81738 -2.75488,-3.13037 -7.95117,-4.19482 -5.19629,-1.06445 -11.14404,-2.37891 -11.14404,-9.39111 0,-6.01025 5.25928,-10.39258 12.83447,-10.39258 5.75977,0 10.89355,2.56689 13.27295,6.19824 l -5.07129,4.57031 c -1.87842,-2.94287 -5.00879,-4.6333 -8.63965,-4.6333 -3.06787,0 -5.07129,1.37744 -5.07129,3.56885 0,2.37891 2.37891,2.81738 6.51123,3.69385 5.57178,1.18945 12.58398,2.37891 12.58398,9.8916 0,6.63672 -6.07324,10.89355 -13.52344,10.89355 -6.07275,0 -12.14551,-2.44141 -15.08789,-6.94922 l 5.63428,-4.50781 z"
           id="path916"
           style="fill:#f5f1e3;fill-opacity:1" />
        <path
           class="cls-2"
           d="m 90.87549,26.4026 h -4.57031 v -6.38574 h 4.57031 v -9.6416 h 7.3877 v 9.6416 h 6.88672 v 6.38574 h -6.88672 v 17.0293 c 0,2.94238 1.69043,3.25537 4.38232,3.25537 1.25244,0 1.94092,-0.0625 3.06787,-0.1875 v 6.32324 c -1.37744,0.25049 -3.25537,0.43799 -5.19629,0.43799 -6.26074,0 -9.6416,-1.94043 -9.6416,-8.63965 z"
           id="path918"
           style="fill:#f5f1e3;fill-opacity:1" />
        <path
           class="cls-2"
           d="m 116.83252,52.88551 h -8.01367 V 7.93385 h 17.96826 c 10.01709,0 16.27783,4.69531 16.27783,13.77344 0,7.07471 -3.88184,11.58252 -10.45557,13.14746 l 11.58203,18.03076 h -9.14014 L 124.09472,35.48072 h -7.26221 v 17.40479 z m 9.51611,-24.2915 c 5.75977,0 8.82764,-2.50439 8.82764,-6.88672 0,-4.44482 -3.06787,-6.88672 -8.82764,-6.88672 h -9.51611 v 13.77344 z"
           id="path920"
           style="fill:#f5f1e3;fill-opacity:1" />
        <path
           class="cls-2"
           d="m 144.02295,43.74489 c 0,-6.26074 4.6958,-9.01514 11.01904,-10.33008 l 9.07812,-1.87842 v -0.56348 c 0,-3.13037 -1.62793,-5.0708 -5.63477,-5.0708 -3.56836,0 -5.44678,1.62744 -6.32324,4.8208 l -7.07471,-1.62793 c 1.62793,-5.44678 6.44873,-9.7041 13.71094,-9.7041 7.88867,0 12.64648,3.75635 12.64648,11.33203 v 14.14893 c 0,1.87842 0.81396,2.44189 2.87988,2.19141 v 5.82227 c -5.44678,0.62598 -8.32666,-0.43848 -9.45361,-3.13037 -2.06592,2.31641 -5.50928,3.69385 -9.7666,3.69385 -6.26074,0 -11.08154,-3.81885 -11.08154,-9.7041 z m 20.09717,-6.44824 -7.07471,1.50244 c -3.19287,0.68848 -5.57178,1.69043 -5.57178,4.63281 0,2.56689 1.87793,4.00684 4.75781,4.00684 4.00684,0 7.88867,-2.12842 7.88867,-6.13525 v -4.00684 z"
           id="path922"
           style="fill:#f5f1e3;fill-opacity:1" />
        <path
           class="cls-2"
           d="m 184.53613,52.88551 h -7.5127 V 20.01686 h 7.5127 z"
           id="path924"
           style="fill:#f5f1e3;fill-opacity:1" />
        <path
           class="cls-2"
           d="m 197.01367,52.88551 h -7.5127 V 7.93385 h 7.5127 z"
           id="path926"
           style="fill:#f5f1e3;fill-opacity:1" />
      </g>
      <rect
         class="cls-2"
         x="176.89819"
         y="7.9338498"
         width="7.7631798"
         height="7.7006798"
         id="rect930"
         style="fill:#f5f1e3;fill-opacity:1" />
    </g>
    <path
       d="m 33.207795,195.94706 0.578756,-1.34421 c 0.62543,0.46674 1.456227,0.70945 2.27769,0.70945 0.606761,0 0.989487,-0.23338 0.989487,-0.5881 -0.0093,-0.98949 -3.631234,-0.2147 -3.659239,-2.69775 -0.0093,-1.26019 1.110842,-2.23101 2.697755,-2.23101 0.942814,0 1.885627,0.23336 2.557733,0.76544 l -0.541418,1.37222 c -0.616096,-0.39206 -1.381549,-0.67211 -2.109663,-0.67211 -0.494744,0 -0.821461,0.23337 -0.821461,0.53208 0.0093,0.97082 3.659238,0.43874 3.696576,2.80978 0,1.2882 -1.09217,2.19367 -2.660414,2.19367 -1.14818,0 -2.20301,-0.2707 -3.005802,-0.84946 m 22.207466,-1.82962 c -0.289379,0.50408 -0.830797,0.84945 -1.456227,0.84945 -0.924144,0 -1.670929,-0.74677 -1.670929,-1.67092 0,-0.92415 0.746785,-1.67092 1.670929,-1.67092 0.62543,0 1.166848,0.34539 1.456227,0.84947 l 1.596248,-0.88681 c -0.597425,-1.06417 -1.745606,-1.79227 -3.052475,-1.79227 -1.932303,0 -3.500547,1.56824 -3.500547,3.50053 0,1.9323 1.568244,3.50055 3.500547,3.50055 1.316205,0 2.45505,-0.71878 3.052475,-1.79227 z m -15.738458,-7.22513 h 1.997646 v 9.77352 h -1.997646 z m 18.118829,0 v 9.77352 h 1.997644 v -2.93112 l 2.371038,2.93112 h 2.557733 l -3.015137,-3.48187 2.791103,-3.24851 h -2.445716 l -2.259021,2.69775 v -5.74089 z m -10.184257,7.2438 c -0.289377,0.47607 -0.886805,0.83078 -1.558908,0.83078 -0.924145,0 -1.670929,-0.74677 -1.670929,-1.67092 0,-0.92415 0.746784,-1.67092 1.670929,-1.67092 0.672103,0 1.269531,0.37339 1.558908,0.8588 z m 0,-4.20066 v 0.79345 c -0.326717,-0.55075 -1.138843,-0.93346 -1.988309,-0.93346 -1.754941,0 -3.136489,1.54957 -3.136489,3.4912 0,1.94163 1.381548,3.50988 3.136489,3.50988 0.849466,0 1.661592,-0.38273 1.988309,-0.93348 v 0.79346 h 1.997646 v -6.72105 z"
       fill="#000000"
       id="path3109"
       style="fill:#ffffff;fill-opacity:1;stroke-width:0.0933477" />
    <path
       d="m 20.857866,194.12677 c 0,0.68145 -0.550752,1.2322 -1.232193,1.2322 -0.68144,0 -1.232192,-0.55075 -1.232192,-1.2322 0,-0.68143 0.550752,-1.23219 1.232192,-1.23219 h 1.232193 z m 0.616096,0 c 0,-0.68143 0.550753,-1.23219 1.232192,-1.23219 0.68144,0 1.232193,0.55076 1.232193,1.23219 v 3.08048 c 0,0.68144 -0.550753,1.2322 -1.232193,1.2322 -0.681439,0 -1.232192,-0.55076 -1.232192,-1.2322 z"
       fill="#e01e5a"
       id="path3111"
       style="stroke-width:0.0933477" />
    <path
       d="m 22.706154,189.17933 c -0.681439,0 -1.232192,-0.55075 -1.232192,-1.23219 0,-0.68144 0.550753,-1.2322 1.232192,-1.2322 0.68144,0 1.232193,0.55076 1.232193,1.2322 v 1.23219 z m 0,0.62543 c 0.68144,0 1.232193,0.55076 1.232193,1.2322 0,0.68143 -0.550753,1.23218 -1.232193,1.23218 h -3.089815 c -0.68144,0 -1.232193,-0.55075 -1.232193,-1.23218 0,-0.68144 0.550753,-1.2322 1.232193,-1.2322 z"
       fill="#36c5f0"
       id="path3113"
       style="stroke-width:0.0933477" />
    <path
       d="m 27.644259,191.03696 c 0,-0.68144 0.550753,-1.2322 1.232193,-1.2322 0.681439,0 1.232192,0.55076 1.232192,1.2322 0,0.68143 -0.550753,1.23218 -1.232192,1.23218 h -1.232193 z m -0.616096,0 c 0,0.68143 -0.550752,1.23218 -1.232193,1.23218 -0.681439,0 -1.232191,-0.55075 -1.232191,-1.23218 v -3.08982 c 0,-0.68144 0.550752,-1.2322 1.232191,-1.2322 0.681441,0 1.232193,0.55076 1.232193,1.2322 z"
       fill="#2eb67d"
       id="path3115"
       style="stroke-width:0.0933477" />
    <path
       d="m 25.79597,195.97506 c 0.681441,0 1.232193,0.55076 1.232193,1.23219 0,0.68144 -0.550752,1.2322 -1.232193,1.2322 -0.681439,0 -1.232191,-0.55076 -1.232191,-1.2322 v -1.23219 z m 0,-0.61609 c -0.681439,0 -1.232191,-0.55075 -1.232191,-1.2322 0,-0.68143 0.550752,-1.23219 1.232191,-1.23219 h 3.089817 c 0.681439,0 1.232191,0.55076 1.232191,1.23219 0,0.68145 -0.550752,1.2322 -1.232191,1.2322 z"
       fill="#ecb22e"
       id="path3117"
       style="stroke-width:0.0933477" />
    <path
       fill="#5059c9"
       d="m 99.396773,191.12064 h 5.735697 c 0.54189,0 0.98117,0.43928 0.98117,0.98116 0,0 0,0 0,0 v 5.22447 c 0,1.99156 -1.61448,3.60604 -3.60605,3.60604 v 0 h -0.017 c -1.99157,2.7e-4 -3.606267,-1.61396 -3.606557,-3.60554 0,-1.8e-4 0,-3.3e-4 0,-4.1e-4 v -5.69282 c 0,-0.28321 0.22959,-0.51279 0.51279,-0.51279 z"
       id="path2-4"
       style="stroke-width:0.00996278" />
    <circle
       fill="#5059c9"
       cx="103.2735"
       cy="187.76407"
       r="2.3238192"
       id="circle4"
       style="stroke-width:0.00996278" />
    <circle
       fill="#7b83eb"
       cx="96.043816"
       cy="186.73126"
       r="3.3566308"
       id="circle6"
       style="stroke-width:0.00996278" />
    <path
       fill="#7b83eb"
       d="m 100.51944,191.12064 h -9.467745 c -0.535425,0.0132 -0.958981,0.4576 -0.946555,0.99305 v 5.95879 c -0.07478,3.21318 2.467336,5.87964 5.680423,5.95827 3.2131,-0.0786 5.755207,-2.74509 5.680447,-5.95827 v -5.95879 c 0.0124,-0.53545 -0.41115,-0.9798 -0.94657,-0.99305 z"
       id="path8"
       style="stroke-width:0.00996278" />
    <path
       opacity="0.1"
       d="m 96.301963,191.12064 v 8.35025 c -0.003,0.38293 -0.23461,0.72693 -0.5887,0.87273 -0.11274,0.0477 -0.23391,0.0723 -0.35632,0.0723 h -4.797377 c -0.06713,-0.17041 -0.129097,-0.34082 -0.180743,-0.5164 -0.180764,-0.59255 -0.273,-1.20855 -0.273696,-1.82807 v -5.95931 c -0.01246,-0.53458 0.410441,-0.97824 0.945011,-0.99149 z"
       id="path10"
       style="stroke-width:0.00996278" />
    <path
       opacity="0.2"
       d="m 95.785563,191.12064 v 8.86666 c 0,0.12241 -0.0246,0.24357 -0.0723,0.35632 -0.14579,0.35408 -0.48981,0.58614 -0.87272,0.58869 h -4.038266 c -0.08779,-0.17041 -0.170412,-0.34082 -0.242715,-0.5164 -0.0723,-0.17557 -0.129097,-0.34082 -0.180743,-0.5164 -0.180764,-0.59254 -0.273,-1.20855 -0.273696,-1.82807 v -5.95931 c -0.01246,-0.53458 0.410441,-0.97824 0.945011,-0.99149 z"
       id="path12"
       style="stroke-width:0.00996278" />
    <path
       opacity="0.2"
       d="m 95.785563,191.12064 v 7.83386 c -0.004,0.52028 -0.42473,0.94108 -0.94502,0.94501 H 90.37883 c -0.180758,-0.59254 -0.272994,-1.20855 -0.27369,-1.82807 v -5.95931 c -0.01239,-0.53458 0.410441,-0.97824 0.945011,-0.99149 z"
       id="path14"
       style="stroke-width:0.00996278" />
    <path
       opacity="0.2"
       d="m 95.269153,191.12064 v 7.83386 c -0.004,0.52028 -0.42473,0.94108 -0.945021,0.94501 H 90.37883 c -0.180758,-0.59254 -0.272994,-1.20855 -0.27369,-1.82807 v -5.95931 c -0.01239,-0.53458 0.410441,-0.97824 0.945011,-0.99149 z"
       id="path16"
       style="stroke-width:0.00996278" />
    <path
       opacity="0.1"
       d="m 96.301963,188.45084 v 1.62666 c -0.0878,0.005 -0.17041,0.0103 -0.2582,0.0103 -0.0878,0 -0.17042,-0.005 -0.25821,-0.0103 -0.17431,-0.0115 -0.34719,-0.0392 -0.5164,-0.0826 -1.045722,-0.24764 -1.909651,-0.98102 -2.323818,-1.97266 -0.07125,-0.16652 -0.126578,-0.33944 -0.165248,-0.5164 h 2.576846 c 0.52111,0.002 0.94305,0.42391 0.94503,0.94502 z"
       id="path18"
       style="stroke-width:0.00996278" />
    <path
       opacity="0.2"
       d="m 95.785563,188.96723 v 1.11027 c -0.17431,-0.0115 -0.34718,-0.0392 -0.5164,-0.0826 -1.045719,-0.24764 -1.909648,-0.98102 -2.323808,-1.97266 h 1.895188 c 0.52109,0.002 0.94304,0.42392 0.94502,0.94501 z"
       id="path20"
       style="stroke-width:0.00996278" />
    <path
       opacity="0.2"
       d="m 95.785563,188.96723 v 1.11027 c -0.17431,-0.0115 -0.34718,-0.0392 -0.5164,-0.0826 -1.045719,-0.24764 -1.909648,-0.98102 -2.323808,-1.97266 h 1.895188 c 0.52109,0.002 0.94304,0.42392 0.94502,0.94501 z"
       id="path22"
       style="stroke-width:0.00996278" />
    <path
       opacity="0.2"
       d="m 95.269153,188.96723 v 1.02765 c -1.045722,-0.24765 -1.909651,-0.98103 -2.323818,-1.97267 h 1.378797 c 0.521101,0.002 0.943031,0.42393 0.945021,0.94502 z"
       id="path24"
       style="stroke-width:0.00996278" />
    <path
       fill="url(#a)"
       d="m 84.854876,188.02221 h 9.467705 c 0.522772,0 0.946562,0.4238 0.946562,0.94657 v 9.46774 c 0,0.52279 -0.42379,0.94658 -0.946562,0.94658 h -9.467705 c -0.522772,0 -0.946555,-0.42381 -0.946555,-0.94658 v -9.46774 c 0,-0.52277 0.423797,-0.94657 0.946555,-0.94657 z"
       id="path33"
       style="fill:url(#a-3);stroke-width:0.00996278" />
    <path
       fill="#ffffff"
       d="m 92.079858,191.62568 h -1.892621 v 5.15372 h -1.205784 v -5.15372 h -1.883834 v -0.99975 h 4.982239 z"
       id="path35"
       style="stroke-width:0.00996278" />
    <path
       style="fill:#ffffff;fill-opacity:1;stroke-width:0.0380966"
       d="m 147.22148,202.11449 c -0.0967,-0.0478 -0.18656,-0.1325 -0.2381,-0.22421 l -0.0829,-0.14733 4.5e-4,-5.4998 4.6e-4,-5.49978 0.0851,-0.1408 c 0.0517,-0.0855 0.54213,-0.51797 1.24704,-1.09967 0.63906,-0.52737 1.20908,-1.00295 1.26671,-1.05684 l 0.10472,-0.098 v -1.46395 c 0,-1.42049 0.003,-1.46818 0.0807,-1.60749 0.0444,-0.079 0.14528,-0.17986 0.22424,-0.22424 0.14062,-0.0791 0.18093,-0.0807 1.96701,-0.0813 l 1.82346,-4.5e-4 1.32887,-1.10413 c 0.92045,-0.76477 1.37419,-1.11771 1.47625,-1.1483 0.27592,-0.0826 0.35079,-0.0341 1.77323,1.14859 l 1.32664,1.1031 1.82344,7.6e-4 c 1.80317,7.5e-4 1.8251,0.001 1.9715,0.0842 0.0943,0.0531 0.17569,0.1403 0.22424,0.24062 0.0721,0.14897 0.0762,0.23525 0.0762,1.61255 v 1.45512 l 1.26672,1.04838 c 0.78323,0.64823 1.29919,1.10248 1.3518,1.19007 l 0.0851,0.14171 4.4e-4,5.48342 c 4.6e-4,5.45952 2.9e-4,5.48412 -0.0778,5.64553 -0.0569,0.11772 -0.12291,0.18364 -0.2406,0.24063 l -0.16213,0.0785 -9.27403,-2e-5 c -9.22452,-4e-5 -9.27487,-4.4e-4 -9.42933,-0.0769 z m 18.04168,-5.63804 v -4.57208 l -0.14285,0.0898 c -1.24873,0.78453 -8.13808,5.06032 -8.227,5.10595 -0.1544,0.0792 -0.32498,0.0797 -0.47672,7.5e-4 -0.0969,-0.0502 -7.98691,-4.95169 -8.28396,-5.14633 l -0.0891,-0.0584 v 4.57598 4.57598 h 8.60986 8.60985 z m -5.65439,-2.39502 2.93047,-1.82406 0.0102,-3.07137 0.0102,-3.07137 h -5.90542 -5.90544 l 0.009,3.07018 0.0102,3.07018 2.93255,1.82525 c 1.61291,1.00388 2.94286,1.82525 2.95546,1.82525 0.0126,0 1.3416,-0.82083 2.95338,-1.82406 z m -3.57224,0.16415 c -1.22199,-0.22106 -2.2838,-1.10078 -2.73345,-2.26467 -0.18498,-0.47876 -0.2432,-0.85524 -0.22042,-1.42492 0.0396,-0.9896 0.37525,-1.75544 1.07046,-2.44252 0.4775,-0.47191 1.05038,-0.79028 1.72444,-0.95833 0.35823,-0.0893 1.22907,-0.0899 1.58483,-7.5e-4 0.67143,0.16763 1.24232,0.47895 1.71854,0.93719 0.47819,0.46015 0.82347,1.05043 0.98144,1.67775 0.0677,0.26906 0.0778,0.39525 0.0618,0.781 -0.0508,1.23575 -0.58779,2.08627 -1.42984,2.26493 -0.26931,0.0572 -0.37434,0.0541 -0.6198,-0.0178 -0.16406,-0.0481 -0.25365,-0.10833 -0.43244,-0.29097 -0.152,-0.15525 -0.2402,-0.21933 -0.27052,-0.19653 -0.36265,0.2727 -0.60826,0.3626 -0.98973,0.36224 -0.44586,-4.2e-4 -0.78932,-0.16265 -1.13531,-0.53635 -0.69543,-0.75115 -0.74271,-2.01263 -0.1054,-2.8141 0.43898,-0.55212 1.22612,-0.77553 1.83768,-0.52158 0.13266,0.0551 0.26262,0.10958 0.28882,0.12114 0.031,0.0137 0.0477,-0.0128 0.0477,-0.0765 0,-0.15876 0.078,-0.28379 0.21877,-0.35057 0.18238,-0.0865 0.38173,-0.0137 0.47679,0.17422 0.0617,0.12191 0.0651,0.24834 0.0443,1.59911 -0.0212,1.37449 -0.0181,1.47505 0.0473,1.59928 0.10687,0.20269 0.23346,0.25733 0.45821,0.19788 0.36813,-0.0974 0.57636,-0.37461 0.73297,-0.97573 0.1655,-0.63531 0.077,-1.28089 -0.25359,-1.85004 -0.21849,-0.37616 -0.72547,-0.86407 -1.09624,-1.05505 -0.51359,-0.26451 -0.80097,-0.33563 -1.35245,-0.33464 -0.55715,7.4e-4 -0.82306,0.06 -1.27623,0.28278 -0.57682,0.2837 -0.99178,0.70195 -1.29431,1.30454 -0.23222,0.46254 -0.3,0.79784 -0.27839,1.37689 0.0139,0.37344 0.0375,0.52296 0.121,0.76842 0.14766,0.43408 0.37464,0.79462 0.70757,1.12385 0.45957,0.45449 0.93158,0.69327 1.56321,0.79083 0.19906,0.0308 0.40194,0.0633 0.45088,0.0721 0.216,0.0395 0.32977,0.304 0.22744,0.52857 -0.0952,0.20886 -0.32636,0.24808 -0.87603,0.14864 z m 0.77302,-2.39939 c 0.19543,-0.10109 0.41199,-0.3946 0.49656,-0.67309 0.1167,-0.38422 0.0922,-0.91748 -0.0563,-1.22072 -0.34694,-0.70912 -1.1899,-0.66808 -1.55609,0.0757 -0.11767,0.23902 -0.12622,0.28243 -0.12571,0.63824 4.4e-4,0.33723 0.013,0.40896 0.10765,0.61482 0.24637,0.5358 0.72699,0.77532 1.13374,0.56499 z m -7.20411,-1.15994 v -0.83813 l -0.56904,0.46668 c -0.31298,0.25667 -0.57013,0.47535 -0.57146,0.48593 -0.001,0.0159 1.10093,0.72101 1.13096,0.723 0.006,2.9e-4 0.009,-0.37652 0.009,-0.83748 z m 14.75292,0.43903 c 0.26717,-0.16385 0.48475,-0.30826 0.48356,-0.32087 -7.5e-4,-0.0126 -0.15906,-0.15151 -0.35078,-0.30866 -0.19172,-0.15715 -0.44788,-0.36864 -0.56926,-0.46998 l -0.22068,-0.18427 v 0.84581 0.84581 l 0.0857,-0.055 c 0.0472,-0.0301 0.3043,-0.18901 0.57144,-0.35288 z m -6.6016,-6.20736 c -0.12979,-0.12521 -1.07458,-0.89861 -1.09773,-0.89861 -0.0238,0 -0.98834,0.78119 -1.10915,0.89834 -0.0482,0.0468 0.10143,0.0541 1.10344,0.0541 0.99946,0 1.15154,-0.008 1.10344,-0.0538 z"
       id="path3402" />
    <path
       style="fill:none;stroke:#ecf2e6;stroke-width:1.2;stroke-linecap:butt;stroke-linejoin:miter;stroke-miterlimit:4;stroke-dasharray:none;stroke-opacity:1;marker-end:url(#marker13891)"
       d="m 141.18544,85.472653 c -19.61866,8.310889 -21.2289,10.233812 -32.52348,25.375447"
       id="path14017"
       sodipodi:nodetypes="cc" />
    <path
       style="fill:none;stroke:#ecf2e6;stroke-width:1.2;stroke-linecap:butt;stroke-linejoin:miter;stroke-miterlimit:4;stroke-dasharray:none;stroke-opacity:1;marker-end:url(#marker13891)"
       d="M 49.273698,85.472653 C 68.892346,93.783542 70.502586,95.706465 81.797157,110.8481"
       id="path15044"
       sodipodi:nodetypes="cc" />
    <path
       style="fill:none;stroke:#ecf2e6;stroke-width:1.2;stroke-linecap:butt;stroke-linejoin:miter;stroke-miterlimit:4;stroke-dasharray:none;stroke-opacity:1;marker-start:url(#Arrow1Mstart)"
       d="M 141.18544,180.98289 C 121.56678,172.672 119.95654,170.74908 108.66196,155.60743"
       id="path15046"
       sodipodi:nodetypes="cc" />
    <path
       style="fill:none;stroke:#ecf2e6;stroke-width:1.2;stroke-linecap:butt;stroke-linejoin:miter;stroke-miterlimit:4;stroke-dasharray:none;stroke-opacity:1;marker-start:url(#Arrow1Mstart)"
       d="M 49.273698,180.98289 C 68.892346,172.672 70.502586,170.74908 81.797157,155.60743"
       id="path15048"
       sodipodi:nodetypes="cc" />
  </g>
</svg>
