<?xml version="1.0" encoding="UTF-8" standalone="no"?>
<!-- Uploaded to: SVG Repo, www.svgrepo.com, Generator: SVG Repo Mixer Tools -->

<svg
   fill="#000000"
   height="800px"
   width="800px"
   version="1.1"
   id="Capa_1"
   viewBox="0 0 427.113 427.113"
   xml:space="preserve"
   sodipodi:docname="icon-background.svg"
   inkscape:version="1.1.2 (b8e25be833, 2022-02-05)"
   inkscape:export-filename="C:\Repositories\pass-parrot\docs\icon.png"
   inkscape:export-xdpi="191.67999"
   inkscape:export-ydpi="191.67999"
   xmlns:inkscape="http://www.inkscape.org/namespaces/inkscape"
   xmlns:sodipodi="http://sodipodi.sourceforge.net/DTD/sodipodi-0.dtd"
   xmlns="http://www.w3.org/2000/svg"
   xmlns:svg="http://www.w3.org/2000/svg"><defs
   id="defs13">
	
	
	
</defs><sodipodi:namedview
   id="namedview11"
   pagecolor="#ffffff"
   bordercolor="#666666"
   borderopacity="1.0"
   inkscape:pageshadow="2"
   inkscape:pageopacity="0.0"
   inkscape:pagecheckerboard="0"
   showgrid="false"
   inkscape:zoom="0.73450715"
   inkscape:cx="256.63467"
   inkscape:cy="434.30482"
   inkscape:window-width="1920"
   inkscape:window-height="1137"
   inkscape:window-x="1912"
   inkscape:window-y="-134"
   inkscape:window-maximized="1"
   inkscape:current-layer="layer3" />

<g
   inkscape:groupmode="layer"
   id="layer3"
   inkscape:label="Layer 0"
   style="display:inline"><rect
     style="fill:#2a2a2e;stroke-width:0.999978;stroke-linejoin:round;fill-opacity:1"
     id="rect953"
     width="433.79468"
     height="432.76672"
     x="-6.167697"
     y="-5.1397476" /><path
     style="fill:#ecf2e6;stroke:none;stroke-width:0.533891px;stroke-linecap:butt;stroke-linejoin:miter;stroke-opacity:1;fill-opacity:1"
     d="m 199.16239,137.56016 5.99668,15.80942 19.08034,5.99668 18.7169,-7.63214 0.18172,-20.35236 -15.26427,-15.08255 -23.44156,5.99667 z"
     id="path864" /><path
     id="path13795"
     style="fill:#627d77;fill-opacity:1;stroke:none;stroke-width:0.533891px;stroke-linecap:butt;stroke-linejoin:miter;stroke-opacity:1"
     d="m 177.0642,78.638428 -0.25652,126.694902 30.35046,5.09595 53.0617,24.3494 30.52774,42.88543 23.03449,49.48088 12.07825,39.57574 50.65814,-0.37852 -18.17107,-27.98446 -20.35252,-51.97098 1.08968,-41.43183 -8.72161,-63.23692 -29.4391,-47.24729 -31.61846,-29.80093 -51.24417,-23.623651 z m 44.70088,27.689352 c 17.216,0 31.22221,14.00621 31.22221,31.22222 0,17.21599 -14.00621,31.22221 -31.22221,31.22221 -17.216,0 -31.22221,-14.00623 -31.22221,-31.22222 0,-17.21599 14.00621,-31.22221 31.22221,-31.22221 z"
     sodipodi:nodetypes="ccccccccccccccccsssss" /><path
     style="fill:#d0e18e;stroke:none;stroke-width:0.533891px;stroke-linecap:butt;stroke-linejoin:miter;stroke-opacity:1;fill-opacity:1"
     d="m 176.80731,205.3329 4.88276,52.9394 29.03957,47.54266 41.37497,37.26317 73.75537,23.64284 -12.07841,-39.57605 -31.09547,-70.92852 -36.74919,-31.35246 -54.22434,-19.01706 z"
     id="path4466" /><path
     style="fill:#8c1039;stroke:none;stroke-width:0.533891px;stroke-linecap:butt;stroke-linejoin:miter;stroke-opacity:1;fill-opacity:1"
     d="m 48.313625,171.41057 10.79347,-47.28568 36.749192,-37.777137 63.732863,-11.307442 17.47515,3.597823 -3.08386,61.933956 -44.45881,1.28493 -53.453371,13.87732 z"
     id="path3120" /><path
     d="m 221.765,106.328 c -17.216,0 -31.222,14.00601 -31.222,31.222 0,17.21599 14.006,31.22199 31.222,31.22199 17.216,0 31.222,-14.006 31.222,-31.22199 0,-17.216 -14.006,-31.222 -31.222,-31.222 z m 0,47.444 c -8.944,0 -16.222,-7.277 -16.222,-16.222 0,-8.945 7.277,-16.222 16.222,-16.222 8.945,0 16.222,7.27699 16.222,16.222 0,8.945 -7.277,16.222 -16.222,16.222 z"
     id="path2"
     style="fill:#1f1f39;fill-opacity:1" /><path
     d="m 217.297,131.526 c -2.616,1.936 -3.696,5.484 -2.591,8.548 1.065,2.956 3.92,4.971 7.063,4.971 3.482,0 6.531,-2.475 7.308,-5.851 1.526,-6.63199 -6.329,-11.70299 -11.78,-7.668 z"
     id="path6"
     style="fill:#1f1f39;fill-opacity:1" /><path
     style="fill:#580a24;stroke:none;stroke-width:0.533891px;stroke-linecap:butt;stroke-linejoin:miter;stroke-opacity:1;fill-opacity:1"
     d="m 55.605559,174.81224 46.519681,-28.71136 71.8552,-5.52879 -0.2585,36.7842 z"
     id="path8422" /><path
     id="path14169"
     style="fill:#ecf2e6;fill-opacity:1;stroke:none;stroke-width:1px;stroke-linecap:butt;stroke-linejoin:miter;stroke-opacity:1"
     d="M 512.1543 18.773438 L 466.9082 27.917969 L 448.13477 64.019531 L 481.97266 78.277344 L 414.92188 63.056641 L 394.22461 148.25586 L 516.48633 204.0918 L 573.28516 127.07617 L 507.50586 89.035156 L 533.81445 100.12109 L 547.77344 79.421875 L 541.51562 39.470703 L 512.1543 18.773438 z "
     transform="scale(0.53389125)" /></g><g
   inkscape:groupmode="layer"
   id="layer1"
   inkscape:label="Layer 1"><path
     d="m 385.774,359.964 -3.67201,-3.545 v 0 c -23.46499,-22.649 -36.923,-54.343 -36.923,-86.955 V 236.75 c 0,-51.394 -23.033,-97.503 -59.312,-128.568 l 26.169,-37.057 c 2.252,-3.188 1.682,-7.572 -1.313,-10.077 -4.706,-3.939 -9.608,-7.589 -14.677,-10.951 l 1.852,-4.469 c 6.96,-16.812 -1.051,-36.155 -17.86,-43.119 -16.815,-6.96 -36.157,1.056 -43.118,17.87 l -2.115,5.106 c -3.341,-0.605 -6.703,-1.13 -10.093,-1.53 l -4.775,-0.563 c -3.962,-0.467 -7.593,2.247 -8.27,6.178 l -6.944,40.401 c -9.359,-1.61 -18.974,-2.46 -28.786,-2.46 h -28.034 C 87.879,67.511 39.046,116.344 39.046,176.368 c 0,4.142 3.357,7.5 7.5,7.5 h 121.89199 v 19.752 c 0,64.354 36.108,120.428 89.125,149.042 v 46.458 h -29.148 c -6.136,0 -11.617,3.663 -13.965,9.331 -2.348,5.668 -1.062,12.134 3.277,16.473 1.461,1.461 3.369,2.19 5.278,2.19 1.917,0 3.836,-0.735 5.304,-2.203 2.929,-2.929 2.903,-7.69 -0.025,-10.619 -0.003,-0.051 0.04,-0.154 0.131,-0.171 h 36.648 c 5.068,0 9.834,1.974 13.418,5.558 l 1.245,1.245 c 1.465,1.464 3.385,2.197 5.304,2.197 1.919,0 3.839,-0.732 5.304,-2.197 2.929,-2.929 2.929,-7.678 0,-10.606 l -1.246,-1.246 c -4.611,-4.61 -10.314,-7.722 -16.524,-9.115 v -40.131 c 20.055,8.391 42.052,13.035 65.115,13.035 h 42.886 c 3.058,0 5.80901,-1.856 6.95401,-4.691 1.14499,-2.835 0.45499,-6.082 -1.745,-8.206 z M 250.78,26.119 c 3.79699,-9.174 14.35101,-13.546 23.52,-9.75 9.16899,3.799 13.53899,14.351 9.74201,23.52 L 283.031,42.327 C 272.43299,36.633 261.244,32.125 249.63399,28.887 Z m -25.53601,13.02 c 25.705,3.433 49.891,13.437 70.464,29.108 l -4.481,6.345 c -9.279,-6.55 -19.21,-12.144 -29.637,-16.64 -12.093,-5.212 -24.735,-8.916 -37.67199,-11.094 z m -3.86699,22.5 c 11.77,1.977 23.272,5.346 34.275,10.088 9.472,4.084 18.494,9.165 26.923,15.116 l -8.53,12.079 C 257.734,87.278 239.27601,78.462 219.39401,73.175 Z M 147.905,82.51 h 20.53399 v 47.642 C 112.42,131.65 74.2,149.644 55.3,161.162 62.59,116.617 101.32999,82.51 147.905,82.51 Z m -75.629,86.358 c 3.319,-1.735 7.015,-3.534 11.092,-5.329 17.99499,-7.922 46.978,-17.273 85.07099,-18.379 v 23.708 z m 111.403,43.295 c 21.811,1.382 42.697,8.583 60.81499,21.066 20.254,13.955 35.588,33.479 44.348,56.463 l 25.31,66.376 C 242.97999,345.129 187.69599,285.361 183.679,212.163 Z m 154,145.697 c -2.296,0 -4.579,-0.06 -6.851,-0.16 l -27.969,-73.351 c -9.847,-25.836 -27.086,-47.784 -49.854,-63.471 -20.69999,-14.263 -44.613,-22.388 -69.566,-23.75 L 183.44,82.69 c 81.581,3.922 146.739,71.524 146.739,154.06 v 32.713 c 0,32.366 11.791,63.926 32.705,88.396 h -25.205 z"
     id="path4"
     style="fill:#1f1f39;fill-opacity:1;stroke:#ffffff;stroke-width:2.01785669;stroke-miterlimit:4;stroke-dasharray:none;stroke-opacity:1" /></g><g
   inkscape:groupmode="layer"
   id="layer2"
   inkscape:label="Layer 2" /></svg>
